<?xml version="1.0" standalone="no"?><!DOCTYPE svg PUBLIC "-//W3C//DTD SVG 1.1//EN" "http://www.w3.org/Graphics/SVG/1.1/DTD/svg11.dtd"><svg t="1704780830896" class="icon" viewBox="0 0 1024 1024" version="1.1" xmlns="http://www.w3.org/2000/svg" p-id="7593" xmlns:xlink="http://www.w3.org/1999/xlink" width="128" height="128"><path d="M117.525333 708.096c0.416 0.426667 0.832 0.832 0.832 1.258667 29.226667 22.122667 58.858667 32.970667 90.165334 32.970666 20.032 0 37.984-5.429333 60.106666-16.277333 3.765333-1.674667 7.52-3.754667 11.690667-6.261333 2.090667-0.832 3.754667-2.090667 5.845333-2.922667l2.922667-1.674667c1.248-0.416 2.090667-1.248 2.922667-1.664 15.029333-7.936 24.213333-12.522667 33.813333-15.861333 12.106667-4.181333 22.954667-6.261333 34.645333-6.261333 10.026667 0 18.784 1.664 27.136 4.586666 7.093333 2.506667 13.354667 6.261333 24.213334 12.522667 1.248 0.842667 5.845333 3.754667 6.677333 4.181333 15.445333 9.6 25.461333 15.018667 38.4 19.616 16.704 6.261333 35.072 9.6 55.52 9.6 20.874667 0 38.4-3.338667 54.688-9.6 9.6-3.754667 16.277333-7.509333 26.293333-13.770666 8.352-5.013333 16.288-10.858667 24.64-15.872a62.944 62.944 0 0 1 10.848-5.013334c10.016-4.16 21.290667-6.250667 35.477334-6.250666 14.613333 0 26.72 2.08 37.994666 6.261333 9.173333 3.338667 16.693333 7.509333 29.216 15.029333 0.426667 0.416 5.429333 3.338667 7.093334 4.170667 12.938667 7.936 22.122667 12.522667 32.565333 16.693333 13.770667 5.44 28.384 7.936 44.661333 7.936 33.397333 0 62.613333-10.026667 87.669334-27.968A25.525333 25.525333 0 0 0 917.333333 690.986667a25.568 25.568 0 0 0-25.461333-25.472c-2.090667 0-3.754667 0.426667-5.845333 0.842666l-10.026667 5.013334a9.749333 9.749333 0 0 0-2.912 2.912c-16.288 11.274667-35.072 17.12-57.194667 17.12a77.973333 77.973333 0 0 1-26.709333-4.586667c-7.104-2.517333-13.365333-6.272-24.213333-12.533333-0.842667-0.416-2.506667-1.664-4.181334-2.506667a215.786667 215.786667 0 0 1-22.122666-12.522667c-0.832-0.416-3.338667-2.08-5.418667-3.338666h-0.426667c-0.832-0.416-1.248-0.832-1.664-0.832-12.938667-7.936-20.458667-12.106667-29.226666-15.029334-11.264-4.170667-23.370667-6.261333-37.973334-6.261333-14.613333 0-25.472 2.090667-35.488 6.261333-7.936 2.922667-13.365333 6.261333-26.304 15.029334-15.445333 10.432-23.370667 15.029333-35.477333 20.032-16.288 6.272-33.813333 9.6-54.688 9.6-20.458667 0-38.826667-3.328-55.52-9.6-12.938667-4.586667-22.954667-10.016-38.4-19.616a65.813333 65.813333 0 0 0-6.688-4.170667c-10.848-6.677333-17.109333-10.026667-24.213333-12.522667-8.341333-3.338667-17.109333-4.586667-27.125334-4.586666-11.690667 0-22.965333 2.08-34.645333 6.250666-10.026667 3.338667-18.784 7.936-33.813333 15.861334h-0.426667l0.426667 1.258666c-7.104 3.338667-14.613333 7.093333-24.213334 12.106667-0.832 0.416-1.674667 0.832-2.922666 1.664l-2.922667 1.674667a74.325333 74.325333 0 0 1-5.429333 2.922666c-4.170667 2.08-7.509333 3.754667-10.432 5.429334-15.445333 7.509333-26.72 10.848-37.568 10.848-17.952 0-36.736-6.677333-56.352-20.032a114.112 114.112 0 0 1-17.12-9.184h-2.506667A25.568 25.568 0 0 0 106.666667 688.48c0.832 7.509333 4.586667 15.029333 10.858666 19.626667z m154.869334-98.933333c14.613333-7.509333 24.629333-12.522667 36.309333-16.693334a148.832 148.832 0 0 1 51.765333-9.184c16.277333 0 30.890667 2.922667 45.088 7.925334 10.848 4.181333 19.616 8.768 32.970667 17.12 1.258667 0.832 6.261333 3.754667 6.677333 4.170666 12.949333 7.936 20.458667 11.690667 29.226667 15.04 11.274667 4.16 23.370667 6.250667 37.984 6.250667s25.461333-2.090667 35.488-6.261333c7.925333-2.922667 13.354667-6.261333 26.293333-15.029334 15.445333-10.432 23.381333-15.029333 35.488-20.032 16.277333-6.261333 33.813333-9.6 54.677334-9.6 20.458667 0 38.826667 3.338667 55.52 9.6 11.274667 4.170667 20.458667 8.768 32.981333 16.277334l40.906667-99.349334c12.522667-25.045333 2.506667-55.52-22.538667-68.053333l-106.453333-53.418667V261.44a50.421333 50.421333 0 0 0-50.506667-50.517333h-75.978667v-25.461334A25.568 25.568 0 0 0 512.832 160a25.568 25.568 0 0 0-25.461333 25.461333v25.461334h-76.394667a50.421333 50.421333 0 0 0-50.506667 50.517333v126.485333l-106.453333 53.429334c-25.034667 12.522667-35.061333 42.986667-22.538667 68.042666l40.917334 99.765334z m138.581333-347.733334h202.453333v100.192l-55.925333-27.552a100.8 100.8 0 0 0-90.165333 0l-56.362667 27.968V261.44z m480.896 522.645334c-7.52 0-14.186667 3.338667-18.784 8.341333-16.288 11.274667-35.072 17.12-57.194667 17.12a77.973333 77.973333 0 0 1-26.709333-4.586667c-7.104-2.506667-13.365333-6.272-24.213333-12.533333-1.258667-0.832-6.677333-4.170667-7.104-4.170667-15.445333-9.6-25.461333-15.029333-38.4-19.626666-17.109333-6.250667-35.061333-9.6-55.52-9.6-20.874667 0-38.4 3.349333-54.688 9.6-12.096 5.013333-20.032 9.6-35.477334 20.053333-12.938667 8.341333-18.368 11.68-26.304 15.018667-10.016 4.170667-21.28 6.261333-35.477333 6.261333-14.613333 0-26.72-2.090667-37.984-6.261333-8.768-3.338667-16.288-7.093333-29.226667-15.029334a65.813333 65.813333 0 0 0-6.677333-4.170666c-13.354667-7.936-22.122667-12.938667-32.981333-17.12-14.186667-5.418667-28.8-7.925333-45.077334-7.925334-17.952 0-34.645333 3.338667-51.765333 9.173334-12.938667 4.597333-23.786667 9.6-40.490667 18.794666-0.832 0.416-1.664 0.832-2.922666 1.664l-2.922667 1.674667c-2.08 1.248-3.754667 2.090667-5.429333 2.922667-4.16 2.08-7.509333 3.754667-10.432 5.429333-15.445333 7.509333-26.72 10.848-37.568 10.848-18.368 0-37.152-6.677333-56.768-20.458667a25.301333 25.301333 0 0 0-19.2-8.757333 25.568 25.568 0 0 0-25.472 25.461333c0 8.352 3.754667 15.445333 10.026666 20.032 0.416 0.426667 0.832 0.842667 0.832 1.258667 29.226667 22.122667 58.858667 32.970667 90.165334 32.970667 20.032 0 37.984-5.418667 60.106666-16.277334 3.754667-1.664 7.52-3.754667 11.690667-6.261333 2.090667-0.832 3.754667-2.090667 5.845333-2.922667l2.922667-1.664c1.248-0.426667 2.08-1.258667 2.922667-1.674666 15.029333-7.925333 24.213333-12.522667 33.813333-15.861334 12.106667-4.170667 22.954667-6.261333 34.645333-6.261333 10.026667 0 18.784 1.664 27.136 4.586667 7.093333 2.506667 13.354667 6.261333 24.213334 12.522666 1.248 0.842667 5.834667 3.765333 6.677333 4.181334 15.445333 9.6 25.461333 15.029333 38.4 19.626666 16.693333 6.250667 35.061333 9.6 55.52 9.6 20.874667 0 38.4-3.349333 54.688-9.6 12.106667-4.597333 20.032-9.610667 35.477333-20.053333 12.938667-8.341333 18.368-11.68 26.304-15.018667 10.016-4.181333 21.290667-6.261333 35.477334-6.261333 14.613333 0 26.72 2.08 37.984 6.261333 9.184 3.338667 16.704 7.509333 29.226666 15.029334 0.416 0.416 5.429333 3.338667 7.093334 4.170666 12.938667 7.936 22.122667 12.522667 32.565333 16.693334 13.770667 5.44 28.373333 7.936 44.661333 7.936 33.386667 0 62.613333-10.026667 87.658667-27.968a25.525333 25.525333 0 0 0 13.781333-22.538667c0.416-12.949333-10.858667-24.64-25.045333-24.64z" fill="#ffffff" p-id="7594"></path></svg>